#N canvas 392 125 1920 997 12;
#X obj 254 434 loadbang;
#X obj 324 435 loadbang;
#X floatatom 369 522 5 0 0 0 - - - 0;
#X msg 362 459 60;
#X msg 252 462 60000;
#X obj 318 470 bng 19 250 50 0 empty empty empty 0 -10 0 12 #fcfcfc #000000 #000000;
#X obj 280 497 /;
#X floatatom 258 523 5 0 0 0 - - - 0;
#X obj 269 548 send 4th_time;
#X obj 194 22 tgl 19 0 empty empty Start 0 -10 0 12 #fcfcfc #000000 #000000 0 1;
#X obj 331 33 sel 0;
#X obj 262 10 loadbang;
#X obj 342 59 receive whole_note;
#X obj 308 52 bng 19 250 50 0 empty empty empty 0 -10 0 12 #fcfcfc #000000 #000000;
#X msg 307 80 -1;
#X obj 342 83 bng 19 250 50 0 empty empty empty 0 -10 0 12 #fcfcfc #000000 #000000;
#X obj 342 107 int 1;
#X floatatom 342 131 5 0 0 0 - - - 0;
#X obj 342 154 % 2;
#X obj 342 178 + 1;
#X obj 342 202 sel 1;
#X obj 344 225 bng 19 250 50 0 empty empty empty 0 -10 0 12 #fcfcfc #000000 #000000;
#X obj 342 274 send Chord;
#X obj 227 87 receive ON;
#X obj 227 111 sel 0;
#X msg 307 137 1;
#X obj 274 111 loadbang;
#X obj 341 250 tgl 19 0 empty empty empty 0 -10 0 12 #fcfcfc #000000 #000000 0 1;
#X obj 132 228 receive 4th_time;
#X floatatom 80 281 5 0 0 0 - - - 0;
#X obj 86 304 send whole_time;
#X obj 35 304 metro;
#X obj 35 328 bng 19 250 50 0 empty empty empty 0 -10 0 12 #fcfcfc #000000 #000000;
#X obj 35 352 send whole_note;
#X obj 119 425 receive 4th_time;
#X obj 74 496 metro;
#X obj 74 520 bng 19 250 50 0 empty empty empty 0 -10 0 12 #fcfcfc #000000 #000000;
#X floatatom 150 513 5 0 0 0 - - - 0;
#X obj 75 565 send 4th_note;
#X obj 13 622 r Chord;
#X obj 13 646 tgl 19 0 empty empty empty 0 -10 0 12 #fcfcfc #000000 #000000 0 1;
#X obj 13 670 sel 0;
#X floatatom 41 750 5 0 0 0 - - - 0;
#X obj 41 773 phasor~;
#X obj 41 797 lop~ 100;
#X obj 90 841 *~;
#X obj 114 672 sel 1;
#X obj 116 696 bng 19 250 50 0 empty empty empty 0 -10 0 12 #fcfcfc #000000 #000000;
#X msg 116 721 1 500;
#X obj 122 797 line;
#X obj 165 648 receive whole_time;
#X obj 165 672 * 2;
#X floatatom 165 696 5 0 0 0 - - - 0;
#X obj 165 719 - 100;
#X obj 153 745 delay;
#X msg 190 780 0 100;
#X obj 213 698 sel 0;
#X obj 213 722 delay 5;
#X obj 887 268 r whole_note;
#X obj 807 551 phasor~;
#X obj 879 540 * 1.001;
#X obj 879 587 phasor~;
#X obj 883 640 *~;
#X floatatom 807 513 5 0 0 0 - - - 0;
#X floatatom 879 564 5 0 0 0 - - - 0;
#X msg 920 400 1 500;
#X obj 944 456 line;
#X obj 985 377 delay;
#X msg 977 422 0 500;
#X obj 965 293 receive whole_time;
#X floatatom 962 321 5 0 0 0 - - - 0;
#X obj 962 344 - 500;
#X obj 1035 355 sel 0;
#X obj 1035 379 delay 5;
#X obj 401 123 + 1;
#X obj 1118 26 catch~ out;
#X obj 1064 63 dac~;
#X obj 1191 92 delwrite~ delBuff 900;
#X obj 1191 116 delread~ delBuff 900;
#X obj 1191 140 *~ 0.9;
#X obj 1191 164 lop~ 40000;
#X obj 1195 190 throw~ out;
#X obj 1191 68 hip~ 1;
#X msg 68 721 97.99;
#X text 381 749 G G;
#X msg 13 722 110;
#X obj 810 611 lop~ 100;
#X obj 315 626 r Chord;
#X obj 315 650 tgl 19 0 empty empty empty 0 -10 0 12 #fcfcfc #000000 #000000 0 1;
#X obj 315 674 sel 0;
#X floatatom 343 754 5 0 0 0 - - - 0;
#X obj 343 777 phasor~;
#X obj 343 801 lop~ 100;
#X obj 392 845 *~;
#X obj 416 676 sel 1;
#X obj 418 700 bng 19 250 50 0 empty empty empty 0 -10 0 12 #fcfcfc #000000 #000000;
#X msg 418 725 1 500;
#X obj 424 801 line;
#X obj 467 652 receive whole_time;
#X floatatom 467 700 5 0 0 0 - - - 0;
#X obj 455 749 delay;
#X msg 488 777 0 100;
#X obj 515 702 sel 0;
#X obj 515 726 delay 5;
#X obj 393 981 throw~ out, f 11;
#X msg 315 726 130.81;
#X msg 370 725 87.3;
#X obj 192 52 send ON1;
#X obj 326 8 receive ON1;
#X obj 83 649 receive ON1;
#X obj 385 653 receive ON1;
#X obj 34 421 receive ON1;
#X obj 1035 331 receive ON1;
#X obj 213 674 receive ON1;
#X obj 515 678 receive ON1;
#X obj 467 723 - 200;
#X obj 467 676 * 1.5;
#X obj 1546 747 r whole_note;
#X obj 1496 1045 phasor~;
#X obj 1568 1034 * 1.001;
#X obj 1568 1081 phasor~;
#X obj 1572 1134 *~;
#X floatatom 1496 1007 5 0 0 0 - - - 0;
#X floatatom 1568 1058 5 0 0 0 - - - 0;
#X msg 1604 878 1 500;
#X obj 1612 946 line;
#X obj 1653 867 delay;
#X msg 1645 912 0 500;
#X obj 1633 783 receive whole_time;
#X floatatom 1630 811 5 0 0 0 - - - 0;
#X obj 1499 1105 lop~ 100;
#X obj 1719 844 sel 0;
#X obj 1719 868 delay 5;
#X obj 1719 820 receive ON1;
#X obj 1578 1169 throw~ out;
#X obj 1630 834 - 800;
#X obj 114 1004 throw~ out;
#X obj 847 688 throw~ out;
#X obj 1505 63 noise~;
#X obj 1431 127 lop~;
#X obj 1427 167 *~;
#X obj 1427 191 *~;
#X obj 1546 118 bp~;
#X obj 1546 142 *~;
#X obj 1546 166 *~;
#X obj 1518 228 throw~ out;
#X msg 1630 103 0.5;
#X msg 1548 87 2500;
#X msg 1587 85 500;
#X msg 1483 110 300;
#X obj 1567 37 loadbang;
#X obj 1429 72 loadbang;
#X obj 1480 20 receive ON1;
#X msg 1482 144 0.4;
#X obj 6 230 receive ON1;
#X obj 1759 291 r 4th_note;
#X obj 1758 318 bng 19 250 50 0 empty empty empty 0 -10 0 12 #fcfcfc #000000 #000000;
#X floatatom 1646 481 5 0 0 0 - - - 0;
#X obj 1646 504 / 2;
#X obj 1493 488 /;
#X obj 1509 418 loadbang;
#X msg 1509 442 1000;
#X obj 1597 456 bng 19 250 50 0 empty empty empty 0 -10 0 12 #fcfcfc #000000 #000000;
#X obj 1594 487 del 1;
#X floatatom 1493 512 5 0 0 0 - - - 0;
#X obj 1299 462 noise~;
#X obj 1299 486 *~ 0.75;
#X obj 1211 508 delwrite~ delayname3 1000;
#X floatatom 1384 547 5 0 0 0 - - - 0;
#X obj 1384 570 delread~ delayname3 500;
#X obj 1384 594 hip~ 500;
#X obj 1384 618 lop~ 100;
#X obj 1384 642 lop~ 2000;
#X obj 1595 586 *~;
#X obj 1555 545 *~ 0.95;
#X obj 1770 456 bng 19 250 50 0 empty empty empty 0 -10 0 12 #fcfcfc #000000 #000000;
#X msg 1688 505 1 10;
#X obj 1686 555 line;
#X obj 1800 492 delay 100;
#X msg 1800 517 0 500;
#X obj 1781 387 receive ON1;
#X obj 1781 411 sel 0;
#X obj 1781 435 delay 5;
#X obj 1595 610 *~ 1;
#X obj 1570 691 send~ Ambient;
#X obj 975 17 receive~ Ambient;
#X obj 839 14 receive~ Ambient;
#X obj 1486 200 *~ 0.7;
#X obj 1501 808 random 8;
#X floatatom 1485 837 5 0 0 0 - - - 0;
#X obj 1224 878 sel 0;
#X msg 1224 902 36;
#X floatatom 1493 939 5 0 0 0 - - - 0;
#X obj 1493 962 mtof;
#X obj 1270 880 sel 1;
#X obj 1315 879 sel 2;
#X obj 1359 883 sel 3;
#X obj 1405 881 sel 4;
#X obj 1449 876 sel 5;
#X obj 1495 873 sel 6;
#X msg 1270 904 55;
#X msg 1315 903 60;
#X msg 1359 907 69;
#X msg 1405 905 74;
#X msg 1449 900 75;
#X obj 1546 877 sel 7;
#X msg 1495 897 77;
#X msg 1546 901 82;
#X obj 1635 284 random 8;
#X floatatom 1635 308 5 0 0 0 - - - 0;
#X obj 1345 349 sel 0;
#X msg 1345 373 36;
#X floatatom 1627 415 5 0 0 0 - - - 0;
#X obj 1627 438 mtof;
#X obj 1391 351 sel 1;
#X obj 1459 352 sel 2;
#X obj 1503 356 sel 3;
#X obj 1549 354 sel 4;
#X obj 1610 348 sel 5;
#X obj 1656 345 sel 6;
#X msg 1391 375 55;
#X msg 1459 376 60;
#X msg 1503 380 69;
#X msg 1549 378 74;
#X msg 1610 372 75;
#X obj 1707 345 sel 7;
#X msg 1656 369 77;
#X msg 1707 369 82;
#X obj 826 317 random 8;
#X floatatom 810 346 5 0 0 0 - - - 0;
#X obj 549 387 sel 0;
#X msg 549 411 36;
#X floatatom 818 448 5 0 0 0 - - - 0;
#X obj 818 471 mtof;
#X obj 595 389 sel 1;
#X obj 640 388 sel 2;
#X obj 684 392 sel 3;
#X obj 730 390 sel 4;
#X obj 774 385 sel 5;
#X obj 820 382 sel 6;
#X msg 595 413 55;
#X msg 640 412 60;
#X msg 684 416 69;
#X msg 730 414 74;
#X msg 774 409 75;
#X obj 871 386 sel 7;
#X msg 820 406 77;
#X msg 871 410 82;
#X obj 1040 508 vsl 19 162 0.01 1 0 0 empty empty Ambient1 0 -9 0 12 #fcfcfc #000000 #000000 0 1;
#X obj 1032 411 loadbang;
#X msg 1033 449 0.5;
#X obj 883 664 *~;
#X obj 1742 967 vsl 19 162 0.01 1 0 0 empty empty Ambient2 0 -9 0 12 #fcfcfc #000000 #000000 0 1;
#X obj 1739 893 loadbang;
#X msg 1740 931 0.5;
#X obj 1819 645 vsl 19 162 0.01 18 0 0 empty empty AmbientR 0 -9 0 12 #fcfcfc #000000 #000000 0 1;
#X obj 1807 542 loadbang;
#X msg 1808 580 0.75;
#X obj 1595 660 *~;
#X obj 1648 1141 *~;
#X floatatom 956 657 5 0 0 0 - - - 0;
#X floatatom 1726 725 5 0 0 0 - - - 0;
#X floatatom 1688 1118 5 0 0 0 - - - 0;
#X obj 631 791 vsl 19 162 0.01 2 0 0 empty empty Bass 0 -9 0 12 #fcfcfc #000000 #000000 0 1;
#X obj 623 685 loadbang;
#X msg 624 723 0.5;
#X floatatom 543 896 5 0 0 0 - - - 0;
#X obj 158 487 * 1;
#X obj 117 258 * 4;
#X obj 417 913 *~;
#X obj 165 927 *~;
#X connect 0 0 4 0;
#X connect 1 0 3 0;
#X connect 2 0 6 1;
#X connect 2 0 5 0;
#X connect 3 0 2 0;
#X connect 4 0 6 0;
#X connect 5 0 6 0;
#X connect 6 0 7 0;
#X connect 7 0 8 0;
#X connect 9 0 107 0;
#X connect 10 0 13 0;
#X connect 11 0 13 0;
#X connect 12 0 15 0;
#X connect 13 0 14 0;
#X connect 14 0 16 0;
#X connect 15 0 16 0;
#X connect 16 0 17 0;
#X connect 16 0 74 0;
#X connect 17 0 18 0;
#X connect 18 0 19 0;
#X connect 19 0 20 0;
#X connect 20 0 21 0;
#X connect 21 0 27 0;
#X connect 23 0 24 0;
#X connect 24 0 25 0;
#X connect 25 0 27 0;
#X connect 26 0 25 0;
#X connect 27 0 22 0;
#X connect 28 0 268 0;
#X connect 29 0 30 0;
#X connect 29 0 31 1;
#X connect 31 0 32 0;
#X connect 32 0 33 0;
#X connect 34 0 267 0;
#X connect 35 0 36 0;
#X connect 36 0 38 0;
#X connect 37 0 35 1;
#X connect 39 0 40 0;
#X connect 40 0 41 0;
#X connect 41 0 85 0;
#X connect 41 1 83 0;
#X connect 42 0 43 0;
#X connect 43 0 44 0;
#X connect 44 0 45 0;
#X connect 45 0 270 0;
#X connect 46 0 47 0;
#X connect 47 0 48 0;
#X connect 48 0 49 0;
#X connect 49 0 45 1;
#X connect 50 0 51 0;
#X connect 51 0 52 0;
#X connect 52 0 53 0;
#X connect 53 0 54 1;
#X connect 54 0 55 0;
#X connect 55 0 49 0;
#X connect 56 0 57 0;
#X connect 57 0 55 0;
#X connect 58 0 228 0;
#X connect 58 0 65 0;
#X connect 58 0 67 0;
#X connect 59 0 86 0;
#X connect 60 0 64 0;
#X connect 61 0 86 0;
#X connect 62 0 251 0;
#X connect 63 0 59 0;
#X connect 63 0 60 0;
#X connect 64 0 61 0;
#X connect 65 0 66 0;
#X connect 66 0 62 1;
#X connect 67 0 68 0;
#X connect 68 0 66 0;
#X connect 69 0 70 0;
#X connect 70 0 71 0;
#X connect 71 0 67 1;
#X connect 72 0 73 0;
#X connect 73 0 68 0;
#X connect 74 0 16 1;
#X connect 75 0 76 0;
#X connect 75 0 76 1;
#X connect 78 0 79 0;
#X connect 79 0 80 0;
#X connect 80 0 81 0;
#X connect 82 0 77 0;
#X connect 83 0 42 0;
#X connect 85 0 42 0;
#X connect 86 0 62 0;
#X connect 87 0 88 0;
#X connect 88 0 89 0;
#X connect 89 0 105 0;
#X connect 89 1 106 0;
#X connect 90 0 91 0;
#X connect 91 0 92 0;
#X connect 92 0 93 0;
#X connect 93 0 269 0;
#X connect 94 0 95 0;
#X connect 95 0 96 0;
#X connect 96 0 97 0;
#X connect 97 0 93 1;
#X connect 98 0 116 0;
#X connect 99 0 115 0;
#X connect 100 0 101 0;
#X connect 101 0 97 0;
#X connect 102 0 103 0;
#X connect 103 0 101 0;
#X connect 105 0 90 0;
#X connect 106 0 90 0;
#X connect 108 0 10 0;
#X connect 109 0 46 0;
#X connect 110 0 94 0;
#X connect 111 0 35 0;
#X connect 112 0 72 0;
#X connect 113 0 56 0;
#X connect 114 0 102 0;
#X connect 115 0 100 1;
#X connect 116 0 99 0;
#X connect 117 0 188 0;
#X connect 117 0 124 0;
#X connect 117 0 126 0;
#X connect 118 0 130 0;
#X connect 119 0 123 0;
#X connect 120 0 130 0;
#X connect 121 0 259 0;
#X connect 122 0 118 0;
#X connect 122 0 119 0;
#X connect 123 0 120 0;
#X connect 124 0 125 0;
#X connect 125 0 121 1;
#X connect 126 0 127 0;
#X connect 127 0 125 0;
#X connect 128 0 129 0;
#X connect 129 0 135 0;
#X connect 130 0 121 0;
#X connect 131 0 132 0;
#X connect 132 0 127 0;
#X connect 133 0 131 0;
#X connect 135 0 126 1;
#X connect 138 0 139 0;
#X connect 138 0 142 0;
#X connect 139 0 140 0;
#X connect 140 0 141 0;
#X connect 141 0 187 0;
#X connect 142 0 143 0;
#X connect 143 0 144 0;
#X connect 144 0 187 0;
#X connect 146 0 143 1;
#X connect 147 0 142 1;
#X connect 148 0 142 2;
#X connect 149 0 139 1;
#X connect 150 0 147 0;
#X connect 150 0 148 0;
#X connect 150 0 146 0;
#X connect 151 0 149 0;
#X connect 151 0 153 0;
#X connect 152 0 138 0;
#X connect 153 0 140 1;
#X connect 154 0 31 0;
#X connect 155 0 156 0;
#X connect 156 0 175 0;
#X connect 156 0 208 0;
#X connect 157 0 158 0;
#X connect 157 0 162 0;
#X connect 158 0 159 1;
#X connect 159 0 164 0;
#X connect 160 0 161 0;
#X connect 161 0 159 0;
#X connect 162 0 159 0;
#X connect 162 0 163 0;
#X connect 163 0 159 0;
#X connect 164 0 168 0;
#X connect 165 0 166 0;
#X connect 166 0 167 0;
#X connect 168 0 169 0;
#X connect 169 0 170 0;
#X connect 169 0 174 0;
#X connect 170 0 171 0;
#X connect 171 0 172 0;
#X connect 172 0 173 0;
#X connect 173 0 183 0;
#X connect 174 0 167 0;
#X connect 175 0 176 0;
#X connect 175 0 178 0;
#X connect 176 0 177 0;
#X connect 177 0 173 1;
#X connect 178 0 179 0;
#X connect 179 0 177 0;
#X connect 180 0 181 0;
#X connect 181 0 182 0;
#X connect 182 0 179 0;
#X connect 183 0 258 0;
#X connect 185 0 76 0;
#X connect 185 0 76 1;
#X connect 187 0 145 0;
#X connect 188 0 189 0;
#X connect 189 0 190 0;
#X connect 189 0 194 0;
#X connect 189 0 195 0;
#X connect 189 0 196 0;
#X connect 189 0 197 0;
#X connect 189 0 198 0;
#X connect 189 0 199 0;
#X connect 189 0 205 0;
#X connect 190 0 191 0;
#X connect 191 0 192 0;
#X connect 192 0 193 0;
#X connect 193 0 122 0;
#X connect 194 0 200 0;
#X connect 195 0 201 0;
#X connect 196 0 202 0;
#X connect 197 0 203 0;
#X connect 198 0 204 0;
#X connect 199 0 206 0;
#X connect 200 0 192 0;
#X connect 201 0 192 0;
#X connect 202 0 192 0;
#X connect 203 0 192 0;
#X connect 204 0 192 0;
#X connect 205 0 207 0;
#X connect 206 0 192 0;
#X connect 207 0 192 0;
#X connect 208 0 209 0;
#X connect 209 0 210 0;
#X connect 209 0 214 0;
#X connect 209 0 215 0;
#X connect 209 0 216 0;
#X connect 209 0 217 0;
#X connect 209 0 218 0;
#X connect 209 0 219 0;
#X connect 209 0 225 0;
#X connect 210 0 211 0;
#X connect 211 0 212 0;
#X connect 212 0 213 0;
#X connect 213 0 157 0;
#X connect 214 0 220 0;
#X connect 215 0 221 0;
#X connect 216 0 222 0;
#X connect 217 0 223 0;
#X connect 218 0 224 0;
#X connect 219 0 226 0;
#X connect 220 0 212 0;
#X connect 221 0 212 0;
#X connect 222 0 212 0;
#X connect 223 0 212 0;
#X connect 224 0 212 0;
#X connect 225 0 227 0;
#X connect 226 0 212 0;
#X connect 227 0 212 0;
#X connect 228 0 229 0;
#X connect 229 0 230 0;
#X connect 229 0 234 0;
#X connect 229 0 235 0;
#X connect 229 0 236 0;
#X connect 229 0 237 0;
#X connect 229 0 238 0;
#X connect 229 0 239 0;
#X connect 229 0 245 0;
#X connect 230 0 231 0;
#X connect 231 0 232 0;
#X connect 232 0 233 0;
#X connect 233 0 63 0;
#X connect 234 0 240 0;
#X connect 235 0 241 0;
#X connect 236 0 242 0;
#X connect 237 0 243 0;
#X connect 238 0 244 0;
#X connect 239 0 246 0;
#X connect 240 0 232 0;
#X connect 241 0 232 0;
#X connect 242 0 232 0;
#X connect 243 0 232 0;
#X connect 244 0 232 0;
#X connect 245 0 247 0;
#X connect 246 0 232 0;
#X connect 247 0 232 0;
#X connect 248 0 260 0;
#X connect 249 0 250 0;
#X connect 250 0 248 0;
#X connect 251 0 137 0;
#X connect 252 0 262 0;
#X connect 253 0 254 0;
#X connect 254 0 252 0;
#X connect 255 0 261 0;
#X connect 256 0 257 0;
#X connect 257 0 255 0;
#X connect 258 0 184 0;
#X connect 259 0 134 0;
#X connect 260 0 251 1;
#X connect 261 0 258 1;
#X connect 262 0 259 1;
#X connect 263 0 266 0;
#X connect 264 0 265 0;
#X connect 265 0 263 0;
#X connect 266 0 269 1;
#X connect 266 0 270 1;
#X connect 267 0 37 0;
#X connect 268 0 29 0;
#X connect 269 0 104 0;
#X connect 270 0 136 0;
#X coords 1920 997 1919 996 0 0 0;
